<svg width="15" height="15" viewBox="0 0 15 15" fill="white" xmlns="http://www.w3.org/2000/svg">
  <path
    d="M14.5 7.25C14.5 7.44891 14.421 7.63968 14.2803 7.78033C14.1397 7.92098 13.9489 8 13.75 8H8V13.75C8 13.9489 7.92098 14.1397 7.78033 14.2803C7.63968 14.421 7.44891 14.5 7.25 14.5C7.05109 14.5 6.86032 14.421 6.71967 14.2803C6.57902 14.1397 6.5 13.9489 6.5 13.75V8H0.75C0.551088 8 0.360322 7.92098 0.21967 7.78033C0.0790177 7.63968 0 7.44891 0 7.25C0 7.05109 0.0790177 6.86032 0.21967 6.71967C0.360322 6.57902 0.551088 6.5 0.75 6.5H6.5V0.75C6.5 0.551088 6.57902 0.360322 6.71967 0.21967C6.86032 0.0790177 7.05109 0 7.25 0C7.44891 0 7.63968 0.0790177 7.78033 0.21967C7.92098 0.360322 8 0.551088 8 0.75V6.5H13.75C13.9489 6.5 14.1397 6.57902 14.2803 6.71967C14.421 6.86032 14.5 7.05109 14.5 7.25Z"
    fill="white" />
</svg>