<svg width="16" height="16" viewBox="0 0 16 16" fill="none" xmlns="http://www.w3.org/2000/svg">
  <g clip-path="url(#clip0_644_16)">
    <mask id="mask0_644_16" style="mask-type:luminance" maskUnits="userSpaceOnUse" x="-1" y="-1"
      width="18" height="18">
      <path
        d="M0.0160227 16.0159L16.016 15.984L15.9841 -0.0159597L-0.0159165 0.0159794L0.0160227 16.0159Z"
        fill="white" />
    </mask>
    <g mask="url(#mask0_644_16)">
      <path
        d="M3.31406 15.0093C3.49976 15.009 3.67761 14.9349 3.80865 14.8033C3.93959 14.6718 4.01303 14.4936 4.01266 14.308L4.00238 9.15796L13.9638 14.8811C14.0703 14.9423 14.1909 14.9744 14.3137 14.9742C14.4365 14.974 14.557 14.9415 14.6633 14.88C14.7696 14.8185 14.8578 14.7301 14.9191 14.6238C14.9804 14.5174 15.0127 14.3968 15.0126 14.274L14.9875 1.69902C14.9874 1.57612 14.9549 1.45528 14.8933 1.34891C14.8317 1.24253 14.7432 1.15421 14.6366 1.09292C14.5301 1.03163 14.4093 0.999472 14.2863 0.999617C14.1634 0.999863 14.0427 1.0324 13.9363 1.09412L3.99779 6.85897L3.98751 1.70798C3.98714 1.52228 3.91298 1.34442 3.78152 1.21339C3.64996 1.08245 3.47181 1.009 3.28611 1.00938L1.68612 1.01257C1.50042 1.01294 1.32257 1.0871 1.19153 1.21856C1.06059 1.35012 0.987145 1.52827 0.987516 1.71397L1.01267 14.3139C1.01304 14.4996 1.08719 14.6775 1.21866 14.8085C1.35022 14.9395 1.52836 15.0129 1.71406 15.0125L3.31406 15.0093Z"
        fill="white" />
    </g>
  </g>
  <defs>
    <clipPath id="clip0_644_16">
      <rect width="16" height="16" fill="white" />
    </clipPath>
  </defs>
</svg>