<svg width="14" height="14" viewBox="0 0 14 14" fill="none" xmlns="http://www.w3.org/2000/svg">
<path d="M5.53 8.47C5.67045 8.61063 5.74934 8.80125 5.74934 9C5.74934 9.19875 5.67045 9.38937 5.53 9.53L2.81 12.25H3.828C4.02691 12.25 4.21768 12.329 4.35833 12.4697C4.49898 12.6103 4.578 12.8011 4.578 13C4.578 13.1989 4.49898 13.3897 4.35833 13.5303C4.21768 13.671 4.02691 13.75 3.828 13.75H0.25V10.171C0.25 9.97209 0.329018 9.78132 0.46967 9.64067C0.610322 9.50002 0.801088 9.421 1 9.421C1.19891 9.421 1.38968 9.50002 1.53033 9.64067C1.67098 9.78132 1.75 9.97209 1.75 10.171V11.189L4.47 8.469C4.61063 8.32855 4.80125 8.24966 5 8.24966C5.19875 8.24966 5.38937 8.32855 5.53 8.469V8.47ZM8.47 5.53C8.32955 5.38937 8.25066 5.19875 8.25066 5C8.25066 4.80125 8.32955 4.61063 8.47 4.47L11.19 1.75H10.172C10.0735 1.75 9.97598 1.7306 9.88499 1.69291C9.79399 1.65522 9.71131 1.59997 9.64167 1.53033C9.57203 1.46069 9.51678 1.37801 9.47909 1.28701C9.4414 1.19602 9.422 1.09849 9.422 1C9.422 0.901509 9.4414 0.803982 9.47909 0.712987C9.51678 0.621993 9.57203 0.539314 9.64167 0.46967C9.71131 0.400026 9.79399 0.344781 9.88499 0.30709C9.97598 0.269399 10.0735 0.25 10.172 0.25H13.75V3.829C13.75 4.02791 13.671 4.21868 13.5303 4.35933C13.3897 4.49998 13.1989 4.579 13 4.579C12.8011 4.579 12.6103 4.49998 12.4697 4.35933C12.329 4.21868 12.25 4.02791 12.25 3.829V2.81L9.53 5.53C9.38937 5.67045 9.19875 5.74934 9 5.74934C8.80125 5.74934 8.61063 5.67045 8.47 5.53Z" fill="white"/>
</svg>
