<svg width="24" height="24" viewBox="0 0 24 24" fill="white" xmlns="http://www.w3.org/2000/svg">
  <g clip-path="url(#clip0_615_29)">
    <path
      d="M12.5 3.24699C12.348 3.15922 12.1755 3.11302 12 3.11302C11.8245 3.11302 11.652 3.15922 11.5 3.24699L4 7.57699V20H8.5V14C8.5 13.7348 8.60536 13.4804 8.79289 13.2929C8.98043 13.1053 9.23478 13 9.5 13H14.5C14.7652 13 15.0196 13.1053 15.2071 13.2929C15.3946 13.4804 15.5 13.7348 15.5 14V20H20V7.57699L12.5 3.24699ZM10.5 1.51499C10.9561 1.25169 11.4734 1.11307 12 1.11307C12.5266 1.11307 13.0439 1.25169 13.5 1.51499L21 5.84499C21.304 6.02052 21.5565 6.27299 21.732 6.57702C21.9076 6.88105 22 7.22593 22 7.57699V21C22 21.2652 21.8946 21.5196 21.7071 21.7071C21.5196 21.8946 21.2652 22 21 22H14.5C14.2348 22 13.9804 21.8946 13.7929 21.7071C13.6054 21.5196 13.5 21.2652 13.5 21V15H10.5V21C10.5 21.2652 10.3946 21.5196 10.2071 21.7071C10.0196 21.8946 9.76522 22 9.5 22H3C2.73478 22 2.48043 21.8946 2.29289 21.7071C2.10536 21.5196 2 21.2652 2 21V7.57699C2.00001 7.22593 2.09243 6.88105 2.26796 6.57702C2.4435 6.27299 2.69597 6.02052 3 5.84499L10.5 1.51499Z"
      fill="white" />
    <path
      d="M12.5 3.24699C12.348 3.15922 12.1755 3.11302 12 3.11302C11.8245 3.11302 11.652 3.15922 11.5 3.24699L4 7.57699V20H8.5V14C8.5 13.7348 8.60536 13.4804 8.79289 13.2929C8.98043 13.1053 9.23478 13 9.5 13H14.5C14.7652 13 15.0196 13.1053 15.2071 13.2929C15.3946 13.4804 15.5 13.7348 15.5 14V20H20V7.57699L12.5 3.24699ZM10.5 1.51499C10.9561 1.25169 11.4734 1.11307 12 1.11307C12.5266 1.11307 13.0439 1.25169 13.5 1.51499L21 5.84499C21.304 6.02052 21.5565 6.27299 21.732 6.57702C21.9076 6.88105 22 7.22593 22 7.57699V21C22 21.2652 21.8946 21.5196 21.7071 21.7071C21.5196 21.8946 21.2652 22 21 22H14.5C14.2348 22 13.9804 21.8946 13.7929 21.7071C13.6054 21.5196 13.5 21.2652 13.5 21V15H10.5V21C10.5 21.2652 10.3946 21.5196 10.2071 21.7071C10.0196 21.8946 9.76522 22 9.5 22H3C2.73478 22 2.48043 21.8946 2.29289 21.7071C2.10536 21.5196 2 21.2652 2 21V7.57699C2.00001 7.22593 2.09243 6.88105 2.26796 6.57702C2.4435 6.27299 2.69597 6.02052 3 5.84499L10.5 1.51499Z"
      fill="white" />
    <path
      d="M12.5 3.24699C12.348 3.15922 12.1755 3.11302 12 3.11302C11.8245 3.11302 11.652 3.15922 11.5 3.24699L4 7.57699V20H8.5V14C8.5 13.7348 8.60536 13.4804 8.79289 13.2929C8.98043 13.1053 9.23478 13 9.5 13H14.5C14.7652 13 15.0196 13.1053 15.2071 13.2929C15.3946 13.4804 15.5 13.7348 15.5 14V20H20V7.57699L12.5 3.24699ZM10.5 1.51499C10.9561 1.25169 11.4734 1.11307 12 1.11307C12.5266 1.11307 13.0439 1.25169 13.5 1.51499L21 5.84499C21.304 6.02052 21.5565 6.27299 21.732 6.57702C21.9076 6.88105 22 7.22593 22 7.57699V21C22 21.2652 21.8946 21.5196 21.7071 21.7071C21.5196 21.8946 21.2652 22 21 22H14.5C14.2348 22 13.9804 21.8946 13.7929 21.7071C13.6054 21.5196 13.5 21.2652 13.5 21V15H10.5V21C10.5 21.2652 10.3946 21.5196 10.2071 21.7071C10.0196 21.8946 9.76522 22 9.5 22H3C2.73478 22 2.48043 21.8946 2.29289 21.7071C2.10536 21.5196 2 21.2652 2 21V7.57699C2.00001 7.22593 2.09243 6.88105 2.26796 6.57702C2.4435 6.27299 2.69597 6.02052 3 5.84499L10.5 1.51499Z"
      fill="white" />
  </g>
  <defs>
    <clipPath id="clip0_615_29">
      <rect width="24" height="24" fill="white" />
    </clipPath>
  </defs>
</svg>
