<svg width="14" height="14" viewBox="0 0 14 14" fill="none" xmlns="http://www.w3.org/2000/svg">
  <path
    d="M14 14H0V12.5H14V14ZM14 9.5H0V8H14V9.5ZM0 2.5C0 1.83696 0.263392 1.20107 0.732233 0.732233C1.20107 0.263392 1.83696 0 2.5 0H11.5C12.163 0 12.7989 0.263392 13.2678 0.732233C13.7366 1.20107 14 1.83696 14 2.5C14 3.16304 13.7366 3.79893 13.2678 4.26777C12.7989 4.73661 12.163 5 11.5 5H2.5C1.83696 5 1.20107 4.73661 0.732233 4.26777C0.263392 3.79893 0 3.16304 0 2.5ZM2.5 1.5C2.23478 1.5 1.98043 1.60536 1.79289 1.79289C1.60536 1.98043 1.5 2.23478 1.5 2.5C1.5 2.76522 1.60536 3.01957 1.79289 3.20711C1.98043 3.39464 2.23478 3.5 2.5 3.5H11.5C11.7652 3.5 12.0196 3.39464 12.2071 3.20711C12.3946 3.01957 12.5 2.76522 12.5 2.5C12.5 2.23478 12.3946 1.98043 12.2071 1.79289C12.0196 1.60536 11.7652 1.5 11.5 1.5H2.5Z"
    fill="white" />
</svg>