<svg width="16" height="16" viewBox="0 0 16 16" fill="none" xmlns="http://www.w3.org/2000/svg">
  <g clip-path="url(#clip0_677_14)">
    <g clip-path="url(#clip1_677_14)">
      <path
        d="M13.4261 2.57401C13.0575 2.20524 12.5942 1.94544 12.0873 1.82326C11.5804 1.70107 11.0496 1.72125 10.5535 1.88156C10.0573 2.04188 9.61507 2.33611 9.27551 2.7318C8.93595 3.12749 8.71226 3.60927 8.62912 4.12401L11.8761 7.37101C12.3909 7.28787 12.8726 7.06419 13.2683 6.72463C13.664 6.38507 13.9583 5.94283 14.1186 5.44667C14.2789 4.95052 14.2991 4.41972 14.1769 3.91283C14.0547 3.40594 13.7949 2.94263 13.4261 2.57401ZM10.5001 8.11801L7.88112 5.49801C6.83408 6.69031 5.78708 7.88264 4.74012 9.07501L2.06512 12.12C1.85031 12.3658 1.7369 12.684 1.74784 13.0102C1.75879 13.3364 1.89327 13.6463 2.12407 13.8771C2.35487 14.1079 2.66474 14.2423 2.99096 14.2533C3.31718 14.2642 3.63537 14.1508 3.88112 13.936L6.94112 11.248L10.5011 8.11901L10.5001 8.11801ZM7.12012 4.09401C7.21086 3.28357 7.52857 2.51521 8.03669 1.87736C8.54482 1.2395 9.22271 0.758064 9.99235 0.488449C10.762 0.218833 11.5921 0.171995 12.3872 0.353322C13.1823 0.53465 13.9101 0.936775 14.4867 1.51342C15.0634 2.09007 15.4655 2.81782 15.6468 3.61291C15.8281 4.408 15.7813 5.23813 15.5117 6.00778C15.2421 6.77743 14.7606 7.45532 14.1228 7.96344C13.4849 8.47156 12.7166 8.78927 11.9061 8.88001L7.93212 12.373L4.87212 15.062C4.34013 15.5287 3.65054 15.7754 2.94327 15.7523C2.23599 15.7292 1.564 15.4379 1.06361 14.9375C0.563223 14.4371 0.271922 13.7651 0.248804 13.0579C0.225685 12.3506 0.472481 11.661 0.939121 11.129L3.61512 8.08401L7.12012 4.09401Z"
        fill="white" />
    </g>
  </g>
  <defs>
    <clipPath id="clip0_677_14">
      <rect width="16" height="16" fill="white" />
    </clipPath>
    <clipPath id="clip1_677_14">
      <rect width="16" height="16" fill="white" />
    </clipPath>
  </defs>
</svg>