<svg width="18" height="4" viewBox="0 0 18 4" fill="none" xmlns="http://www.w3.org/2000/svg">
  <path
    d="M1.5 3.5C1.89782 3.5 2.27936 3.34196 2.56066 3.06066C2.84196 2.77936 3 2.39782 3 2C3 1.60218 2.84196 1.22064 2.56066 0.93934C2.27936 0.658035 1.89782 0.5 1.5 0.5C1.10218 0.5 0.720644 0.658035 0.43934 0.93934C0.158035 1.22064 0 1.60218 0 2C0 2.39782 0.158035 2.77936 0.43934 3.06066C0.720644 3.34196 1.10218 3.5 1.5 3.5ZM16.5 3.5C16.8978 3.5 17.2794 3.34196 17.5607 3.06066C17.842 2.77936 18 2.39782 18 2C18 1.60218 17.842 1.22064 17.5607 0.93934C17.2794 0.658035 16.8978 0.5 16.5 0.5C16.1022 0.5 15.7206 0.658035 15.4393 0.93934C15.158 1.22064 15 1.60218 15 2C15 2.39782 15.158 2.77936 15.4393 3.06066C15.7206 3.34196 16.1022 3.5 16.5 3.5ZM9 3.5C9.39782 3.5 9.77936 3.34196 10.0607 3.06066C10.342 2.77936 10.5 2.39782 10.5 2C10.5 1.60218 10.342 1.22064 10.0607 0.93934C9.77936 0.658035 9.39782 0.5 9 0.5C8.60218 0.5 8.22064 0.658035 7.93934 0.93934C7.65804 1.22064 7.5 1.60218 7.5 2C7.5 2.39782 7.65804 2.77936 7.93934 3.06066C8.22064 3.34196 8.60218 3.5 9 3.5Z"
    fill="white" />
</svg>