<svg width="16" height="15" viewBox="0 0 16 15" fill="none" xmlns="http://www.w3.org/2000/svg">
  <path
    d="M0 3.75C0 2.75544 0.395088 1.80161 1.09835 1.09835C1.80161 0.395088 2.75544 0 3.75 0H12.25C13.2446 0 14.1984 0.395088 14.9017 1.09835C15.6049 1.80161 16 2.75544 16 3.75V8.75C16 9.74456 15.6049 10.6984 14.9017 11.4017C14.1984 12.1049 13.2446 12.5 12.25 12.5H9.81L10.828 13.518C10.9017 13.5867 10.9608 13.6695 11.0018 13.7615C11.0428 13.8535 11.0648 13.9528 11.0666 14.0535C11.0684 14.1542 11.0498 14.2542 11.0121 14.3476C10.9744 14.441 10.9183 14.5258 10.847 14.597C10.7758 14.6683 10.691 14.7244 10.5976 14.7621C10.5042 14.7998 10.4042 14.8184 10.3035 14.8166C10.2028 14.8148 10.1035 14.7928 10.0115 14.7518C9.91946 14.7108 9.83666 14.6517 9.768 14.578L6.939 11.75L9.768 8.922C9.83666 8.84831 9.91946 8.78921 10.0115 8.74822C10.1035 8.70723 10.2028 8.68519 10.3035 8.68341C10.4042 8.68163 10.5042 8.70016 10.5976 8.73788C10.691 8.7756 10.7758 8.83174 10.847 8.90296C10.9183 8.97418 10.9744 9.05901 11.0121 9.1524C11.0498 9.24579 11.0684 9.34582 11.0666 9.44652C11.0648 9.54723 11.0428 9.64654 11.0018 9.73854C10.9608 9.83054 10.9017 9.91334 10.828 9.982L9.811 11H12.25C12.8467 11 13.419 10.7629 13.841 10.341C14.2629 9.91903 14.5 9.34674 14.5 8.75V3.75C14.5 3.15326 14.2629 2.58097 13.841 2.15901C13.419 1.73705 12.8467 1.5 12.25 1.5H3.75C3.15326 1.5 2.58097 1.73705 2.15901 2.15901C1.73705 2.58097 1.5 3.15326 1.5 3.75V8.75C1.5 9.34674 1.73705 9.91903 2.15901 10.341C2.58097 10.7629 3.15326 11 3.75 11H5V12.5H3.75C2.75544 12.5 1.80161 12.1049 1.09835 11.4017C0.395088 10.6984 0 9.74456 0 8.75L0 3.75Z"
    fill="white" />
</svg>