<svg width="24" height="24" viewBox="0 0 24 24" fill="none" xmlns="http://www.w3.org/2000/svg">
  <g clip-path="url(#clip0_663_5)">
    <path
      d="M11.999 3C10.8171 3 9.6468 3.23279 8.55487 3.68508C7.46294 4.13738 6.47079 4.80031 5.63506 5.63604C4.79934 6.47177 4.1364 7.46392 3.68411 8.55585C3.23182 9.64778 2.99902 10.8181 2.99902 12C2.99902 13.1819 3.23182 14.3522 3.68411 15.4442C4.1364 16.5361 4.79934 17.5282 5.63506 18.364C6.47079 19.1997 7.46294 19.8626 8.55487 20.3149C9.6468 20.7672 10.8171 21 11.999 21C14.386 21 16.6752 20.0518 18.363 18.364C20.0508 16.6761 20.999 14.3869 20.999 12C20.999 9.61305 20.0508 7.32387 18.363 5.63604C16.6752 3.94821 14.386 3 11.999 3ZM0.999023 12C0.999023 5.925 5.92402 1 11.999 1C18.074 1 22.999 5.925 22.999 12C22.999 18.075 18.074 23 11.999 23C5.92402 23 0.999023 18.075 0.999023 12Z"
      fill="white" />
    <path
      d="M17.999 12C17.999 12.2652 17.8937 12.5196 17.7061 12.7071C17.5186 12.8946 17.2642 13 16.999 13H12.999V17C12.999 17.2652 12.8937 17.5196 12.7061 17.7071C12.5186 17.8946 12.2642 18 11.999 18C11.7338 18 11.4795 17.8946 11.2919 17.7071C11.1044 17.5196 10.999 17.2652 10.999 17V13H6.99902C6.73381 13 6.47945 12.8946 6.29192 12.7071C6.10438 12.5196 5.99902 12.2652 5.99902 12C5.99902 11.7348 6.10438 11.4804 6.29192 11.2929C6.47945 11.1054 6.73381 11 6.99902 11H10.999V7C10.999 6.73478 11.1044 6.48043 11.2919 6.29289C11.4795 6.10536 11.7338 6 11.999 6C12.2642 6 12.5186 6.10536 12.7061 6.29289C12.8937 6.48043 12.999 6.73478 12.999 7V11H16.999C17.2642 11 17.5186 11.1054 17.7061 11.2929C17.8937 11.4804 17.999 11.7348 17.999 12Z"
      fill="white" />
  </g>
  <defs>
    <clipPath id="clip0_663_5">
      <rect width="24" height="24" fill="white" />
    </clipPath>
  </defs>
</svg>