<svg width="17" height="16" viewBox="0 0 17 16" fill="white" xmlns="http://www.w3.org/2000/svg">
  <path
    d="M7.22872 0.75076C7.22837 0.602306 7.27214 0.457097 7.35448 0.33357C7.43682 0.210043 7.55401 0.113771 7.69117 0.0569776C7.82834 0.000184264 7.97928 -0.0145684 8.12484 0.0145928C8.2704 0.043754 8.40402 0.115514 8.50872 0.22076L16.0387 7.74076L8.50872 15.2618C8.38773 15.3912 8.22484 15.4735 8.04891 15.4943C7.87299 15.5151 7.69538 15.473 7.54756 15.3753C7.39974 15.2777 7.29125 15.1309 7.24131 14.961C7.19137 14.791 7.2032 14.6088 7.27472 14.4468C7.31583 14.3549 7.375 14.2723 7.44872 14.2038L13.1687 8.48976H0.788717C0.687101 8.49501 0.585479 8.47953 0.490035 8.44426C0.394592 8.409 0.307323 8.35467 0.23354 8.28461C0.159757 8.21454 0.101003 8.13019 0.0608537 8.03669C0.0207046 7.9432 0 7.84251 0 7.74076C0 7.63901 0.0207046 7.53832 0.0608537 7.44483C0.101003 7.35133 0.159757 7.26698 0.23354 7.19691C0.307323 7.12685 0.394592 7.07253 0.490035 7.03726C0.585479 7.00199 0.687101 6.98651 0.788717 6.99176H13.1687L7.44872 1.27976C7.37901 1.21022 7.3237 1.12761 7.28595 1.03666C7.2482 0.945721 7.22875 0.849227 7.22872 0.75076Z"
    fill="white" />
</svg>