<svg width="9" height="16" viewBox="0 0 9 16" fill="none" xmlns="http://www.w3.org/2000/svg">
  <path
    d="M0.238708 0.21934C0.0982575 0.359965 0.0193681 0.550589 0.0193681 0.74934C0.0193681 0.948091 0.0982575 1.13871 0.238708 1.27934L6.70871 7.74934L0.238708 14.2193C0.165021 14.288 0.105919 14.3708 0.064927 14.4628C0.023935 14.5548 0.00189351 14.6541 0.000116722 14.7548C-0.00166006 14.8555 0.0168643 14.9555 0.0545854 15.0489C0.0923064 15.1423 0.148451 15.2272 0.21967 15.2984C0.290888 15.3696 0.375722 15.4257 0.46911 15.4635C0.562499 15.5012 0.662528 15.5197 0.763231 15.5179C0.863934 15.5162 0.963247 15.4941 1.05525 15.4531C1.14725 15.4121 1.23005 15.353 1.29871 15.2793L8.82871 7.74934L1.29871 0.21934C1.15808 0.0788896 0.967459 0 0.768708 0C0.569957 0 0.379333 0.0788896 0.238708 0.21934Z"
    fill="white" />
</svg>