<svg width="9" height="16" viewBox="0 0 9 16" fill="none" xmlns="http://www.w3.org/2000/svg">
  <path
    d="M8.59 0.21934C8.73045 0.359965 8.80934 0.550589 8.80934 0.74934C8.80934 0.948091 8.73045 1.13871 8.59 1.27934L2.12 7.74934L8.59 14.2193C8.66369 14.288 8.72279 14.3708 8.76378 14.4628C8.80477 14.5548 8.82682 14.6541 8.82859 14.7548C8.83037 14.8555 8.81184 14.9555 8.77412 15.0489C8.7364 15.1423 8.68026 15.2272 8.60904 15.2984C8.53782 15.3696 8.45299 15.4257 8.3596 15.4635C8.26621 15.5012 8.16618 15.5197 8.06548 15.5179C7.96477 15.5162 7.86546 15.4941 7.77346 15.4531C7.68146 15.4121 7.59866 15.353 7.53 15.2793L0 7.74934L7.53 0.21934C7.67063 0.0788896 7.86125 0 8.06 0C8.25875 0 8.44937 0.0788896 8.59 0.21934Z"
    fill="white" />
</svg>