<svg width="16" height="16" viewBox="0 0 16 16" fill="none" xmlns="http://www.w3.org/2000/svg">
<path d="M16 2.45C16 1.65 15.35 1 14.55 1H1.45C0.65 1 0 1.65 0 2.45V13.55C0 14.35 0.65 15 1.45 15H7.007V13.5H1.5V2.5H14.5V7H16V2.45Z" fill="white"/>
<path d="M15.25 9.00699C15.4489 9.00699 15.6396 9.08601 15.7803 9.22666C15.9209 9.36731 16 9.55808 16 9.75699V14.25C16 14.4489 15.9209 14.6397 15.7803 14.7803C15.6396 14.921 15.4489 15 15.25 15H9.32495C9.12604 15 8.93527 14.921 8.79462 14.7803C8.65397 14.6397 8.57495 14.4489 8.57495 14.25V9.75699C8.57495 9.55808 8.65397 9.36731 8.79462 9.22666C8.93527 9.08601 9.12604 9.00699 9.32495 9.00699H15.25Z" fill="white"/>
</svg>
