<svg width="16" height="16" viewBox="0 0 16 16" fill="none" xmlns="http://www.w3.org/2000/svg">
  <g clip-path="url(#clip0_637_38)">
    <g clip-path="url(#clip1_637_38)">
      <path
        d="M10.016 1.12503C9.96679 1.03949 9.90119 0.964512 9.82296 0.904379C9.74472 0.844245 9.65539 0.800141 9.56007 0.774594C9.46476 0.749047 9.36534 0.74256 9.26752 0.755504C9.1697 0.768448 9.07539 0.800569 8.99 0.850027L2.065 4.85003C1.51272 5.16968 1.05421 5.62894 0.735453 6.18173C0.416696 6.73452 0.248901 7.36141 0.248901 7.99953C0.248901 8.63764 0.416696 9.26453 0.735453 9.81732C1.05421 10.3701 1.51272 10.8294 2.065 11.149L8.99 15.149C9.10405 15.2149 9.23343 15.2495 9.36512 15.2495C9.49681 15.2495 9.62618 15.2148 9.74021 15.1489C9.85424 15.083 9.94891 14.9883 10.0147 14.8742C10.0805 14.7601 10.1151 14.6307 10.115 14.499V1.49903C10.1151 1.36742 10.0807 1.23809 10.015 1.12403L10.016 1.12503ZM11.5 5.56003C11.9466 5.79219 12.3209 6.14249 12.5822 6.57273C12.8434 7.00298 12.9816 7.49668 12.9816 8.00003C12.9816 8.50338 12.8434 8.99707 12.5822 9.42732C12.3209 9.85757 11.9466 10.2079 11.5 10.44V5.56003Z"
        fill="green" />
      <path
        d="M16 8.00002C16 9.30799 15.5542 10.5769 14.7361 11.5975C13.9181 12.618 12.7766 13.3293 11.5 13.614V12.064C12.3687 11.7964 13.1288 11.2573 13.6688 10.526C14.2087 9.79467 14.5 8.90956 14.5 8.00052C14.5 7.09148 14.2087 6.20637 13.6688 5.47505C13.1288 4.74372 12.3687 4.20469 11.5 3.93702V2.38702C12.7764 2.67168 13.9178 3.38282 14.7358 4.40319C15.5538 5.42356 15.9998 6.69223 16 8.00002Z"
        fill="green" />
    </g>
  </g>
  <defs>
    <clipPath id="clip0_637_38">
      <rect width="16" height="16" fill="green" />
    </clipPath>
    <clipPath id="clip1_637_38">
      <rect width="16" height="16" fill="green" />
    </clipPath>
  </defs>
</svg>