<svg width="15" height="15" viewBox="0 0 15 15" fill="none" xmlns="http://www.w3.org/2000/svg">
<path d="M9.49023 0.099481C9.60431 0.165348 9.69903 0.260102 9.76486 0.374208C9.8307 0.488314 9.86531 0.617747 9.86523 0.749481V13.7495C9.86531 13.8812 9.83072 14.0106 9.76493 14.1247C9.69913 14.2387 9.60446 14.3335 9.49043 14.3994C9.37641 14.4652 9.24704 14.4999 9.11535 14.5C8.98365 14.5 8.85428 14.4653 8.74023 14.3995L1.81523 10.3995C0.981421 9.91604 0.373244 9.1218 0.123947 8.19078C-0.125349 7.25977 0.00456515 6.26789 0.485225 5.43248C0.804066 4.87952 1.26274 4.42015 1.81523 4.10048L8.74023 0.100481C8.85424 0.0346547 8.98357 0 9.11523 0C9.24688 0 9.37621 0.0336547 9.49023 0.099481ZM2.56623 5.39948C2.24219 5.58754 1.97324 5.85741 1.78628 6.18208C1.59932 6.50675 1.50092 6.87483 1.50092 7.24948C1.50092 7.62413 1.59932 7.99221 1.78628 8.31688C1.97324 8.64155 2.24219 8.91142 2.56623 9.09948L8.36623 12.4495V2.04948L2.56623 5.39948ZM11.2492 11.4865C12.1218 11.1731 12.8764 10.5979 13.4098 9.83955C13.9432 9.0812 14.2294 8.17664 14.2294 7.24948C14.2294 6.32232 13.9432 5.41777 13.4098 4.65941C12.8764 3.90106 12.1218 3.32588 11.2492 3.01248V4.66248C11.7006 4.92697 12.0749 5.30494 12.3351 5.75885C12.5952 6.21276 12.732 6.72682 12.732 7.24998C12.732 7.77314 12.5952 8.2872 12.3351 8.74111C12.0749 9.19502 11.7006 9.57299 11.2492 9.83748V11.4865Z" fill="white"/>
</svg>
